Coordinates
version=1
nRows=6
nColumns=36
inDegrees=yes

Units are S.I. units (second, meters, Newtons, ...)
If the header above contains a line with 'inDegrees', this indicates whether rotational values are in degrees (yes) or radians (no).

endheader
time	pelvis_tilt	pelvis_list	pelvis_rotation	pelvis_tx	pelvis_ty	pelvis_tz	hip_flexion_r	hip_adduction_r	hip_rotation_r	knee_angle_r	knee_angle_r_beta	ankle_angle_r	subtalar_angle_r	mtp_angle_r	hip_flexion_l	hip_adduction_l	hip_rotation_l	knee_angle_l	knee_angle_l_beta	ankle_angle_l	subtalar_angle_l	mtp_angle_l	lumbar_extension	lumbar_bending	lumbar_rotation	arm_flex_r	arm_add_r	arm_rot_r	elbow_flex_r	pro_sup_r	arm_flex_l	arm_add_l	arm_rot_l	elbow_flex_l	pro_sup_l
      0.92000000	     -7.59510267	      0.42218311	      2.59414765	     -0.66777081	      1.42947873	     -0.57657714	     14.90226888	     -1.38140546	     -2.27822667	     27.97232262	      0.48820913	    -21.56088680	     -4.32782217	     -5.36788760	     24.50804500	     -2.13792204	     -6.80962840	     39.26841181	      0.68536308	    -33.69571350	    -14.78466660	     -5.36788760	    -19.42165631	     -2.66556647	     -6.55976354	      3.12160517	    -11.79131381	    -17.35868287	    110.96897886	    102.24869285	      2.17985397	    -16.07741154	      5.04996245	    110.16129111	    109.23976381
      0.93000000	     -7.80350955	      0.34011537	      2.56809762	     -0.66061885	      1.43048292	     -0.57689083	     16.28662180	     -1.60753905	     -2.65882563	     26.79907942	      0.46773217	    -21.14908291	     -4.41834955	     -5.37852749	     25.52790739	     -2.39415643	     -7.21524960	     37.82328038	      0.66014078	    -33.42937923	    -14.30091698	     -5.37852749	    -20.35003307	     -2.56105972	     -6.57551166	      2.64732618	    -12.35922184	    -17.22415182	    111.17930779	    102.32283164	      2.11124389	    -16.36671405	      4.98137811	    110.41616988	    109.37305402
      0.94000000	     -7.91170439	      0.35765779	      2.44489988	     -0.65315057	      1.43062316	     -0.57714005	     17.48405979	     -1.90612725	     -2.93885198	     25.43210286	      0.44387393	    -21.00118112	     -4.56071571	     -5.43310995	     26.22370945	     -2.62282897	     -7.80077118	     36.06805624	      0.62950634	    -32.12490377	    -12.18506800	     -5.43310995	    -21.36858408	     -2.60069615	     -6.49193657	      1.99965937	    -13.13595537	    -17.04302357	    111.85859266	    102.62418888	      2.12929615	    -16.84799570	      4.91704015	    110.87616265	    109.98566721
      0.95000000	     -8.23844787	      0.33730879	      2.32255269	     -0.64529422	      1.42937449	     -0.57759612	     18.83086612	     -2.17396764	     -3.26754924	     23.92560180	      0.41758053	    -20.99256789	     -4.66904226	     -5.44818024	     27.03473537	     -2.78030286	     -8.24973836	     34.14516225	      0.59594550	    -31.35780099	    -11.81597576	     -5.44818024	    -21.97894711	     -2.58078197	     -6.41205890	      1.24471744	    -14.04803918	    -16.82624810	    112.57385361	    102.74745525	      1.94201581	    -17.35261238	      4.77879061	    111.47783371	    110.18907516
      0.96000000	     -8.34594657	      0.34475799	      2.09454355	     -0.63694118	      1.42748563	     -0.57781145	     19.80211352	     -2.36505231	     -3.34551024	     22.17678389	      0.38705790	    -21.72720189	     -5.13693170	     -5.51562493	     27.41218818	     -3.05819606	     -9.02299857	     32.04745570	      0.55933362	    -29.49863181	     -9.86735173	     -5.51562493	    -22.76584748	     -2.64376236	     -6.16929131	      0.36174019	    -15.04453522	    -16.84189676	    113.55516905	    103.08646916	      1.86318231	    -17.97160807	      4.61202523	    112.23165838	    110.87564617
      0.97000000	     -8.74720882	      0.33514010	      1.86427816	     -0.62824925	      1.42402404	     -0.57800409	     21.08220876	     -2.55849381	     -3.45453767	     20.54640857	      0.35860248	    -21.86184836	     -4.98149471	     -5.53167092	     28.01130169	     -3.24358710	     -9.58012622	     29.81890063	      0.52043800	    -28.78759418	     -9.55872912	     -5.53167092	    -23.04327681	     -2.76478714	     -5.96027261	     -0.60993909	    -16.14980786	    -16.82911797	    114.43706221	    103.23285559	      1.46511858	    -18.59966309	      4.28704264	    113.16656860	    111.05933708
